# xmcd
#
# Track frame offsets:
#	150
#	16762
#	35954
#	51151
#	72026
#	86911
#	104071
#	119253
#	135347
#	148975
#	164857
#	183627
#	202242
#	218457
#	235512
#	247994
#	265269
#	281759
#
# Disc length: 3986 seconds
#
# Revision: 1
# Processed by: cddbd v1.5.1PL0 Copyright (c) Steve Scherf et al.
# Submitted via: audiograbber 1.83.01
#
DISCID=180f9012
DTITLE=Various Artist - NuMusic Traxx #62
DYEAR=2001
DGENRE=Top 40
TTITLE0=Tonya Mitchell - Broken Promises
TTITLE1=Nelly Ft. City Spud - Ride Wit Me
TTITLE2=Monica - Just Another Girl
TTITLE3=Tow Down Ft. Hawk and Big Pokey - Country Rap Tune
TTITLE4=Outsiderz 4 Life - Not Enough
TTITLE5=Delerium Ft. sarah McLauhlan - Silence (Airscape Remix)
TTITLE6=Anastacia - I'm Outta Love (2001 Mix)
TTITLE7=Samantha Mumba - Baby, Come Over (This is Our Night)
TTITLE8=Amanda - Everybody Doesn't
TTITLE9=Fragman - Every Time You Need Me
TTITLE10=kathie Lee Gifford - Heart Of A Woman
TTITLE11=Jagged Edge - Promise
TTITLE12=Joe Ft. Mystikal - Stutter (Double Take Remix)
TTITLE13=Alison Krauss - Maybe
TTITLE14=Kenny Rogers - There You Go Again
TTITLE15=Chris Cagle - Laredo
TTITLE16=Montgomery Gentry - She Couldn't Change Me
TTITLE17=Aaron Lewis From Stain (With Fred Durst) - Outside
EXTD=
EXTT0=
EXTT1=
EXTT2=
EXTT3=
EXTT4=
EXTT5=
EXTT6=
EXTT7=
EXTT8=
EXTT9=
EXTT10=
EXTT11=
EXTT12=
EXTT13=
EXTT14=
EXTT15=
EXTT16=
EXTT17=
PLAYORDER=
